Coordinates
version=1
nRows=13
nColumns=36
inDegrees=yes

Units are S.I. units (second, meters, Newtons, ...)
If the header above contains a line with 'inDegrees', this indicates whether rotational values are in degrees (yes) or radians (no).

endheader
time	pelvis_tilt	pelvis_list	pelvis_rotation	pelvis_tx	pelvis_ty	pelvis_tz	hip_flexion_r	hip_adduction_r	hip_rotation_r	knee_angle_r	knee_angle_r_beta	ankle_angle_r	subtalar_angle_r	mtp_angle_r	hip_flexion_l	hip_adduction_l	hip_rotation_l	knee_angle_l	knee_angle_l_beta	ankle_angle_l	subtalar_angle_l	mtp_angle_l	lumbar_extension	lumbar_bending	lumbar_rotation	arm_flex_r	arm_add_r	arm_rot_r	elbow_flex_r	pro_sup_r	arm_flex_l	arm_add_l	arm_rot_l	elbow_flex_l	pro_sup_l
      9.88000000	    -14.77157166	     -3.09298054	     -0.52575337	     -0.23613417	      0.93263086	     -0.71969518	     28.31598695	     -8.71172290	     -4.48700343	     16.35725068	      0.28548788	      2.59584362	      0.35183075	     -7.49999987	     27.55436433	    -17.56737104	    -17.63562353	     16.95066452	      0.29584491	      4.58857059	      3.22696863	     -7.49999987	    -11.05748282	      0.62484828	      2.61848051	     34.26801473	     -9.88378062	     31.30205620	    129.39383483	    109.84897209	     42.55068392	    -12.04272337	     39.25400989	    124.07422943	    108.68854654
      9.89000000	    -14.58091202	     -2.98452530	     -0.65864642	     -0.23482401	      0.93374222	     -0.72101605	     27.67675223	     -8.76517023	     -4.18433791	     15.57409588	      0.27181925	      2.07066678	     -0.02423741	     -7.49999987	     26.91684221	    -17.34577572	    -18.05877858	     16.47491601	      0.28754153	      4.64299253	      3.50131220	     -7.49999987	    -10.86069139	      0.49849830	      2.67940307	     33.43436557	     -9.76343314	     31.14139613	    129.32804598	    110.20398277	     41.70522600	    -12.12601213	     39.19473922	    124.02217649	    108.77486118
      9.90000000	    -14.39475397	     -2.85162390	     -0.68026386	     -0.23352202	      0.93482611	     -0.72244400	     27.03765398	     -8.93126944	     -4.14939113	     14.84053905	      0.25901627	      1.75756015	      0.12272099	     -7.49999987	     26.30473961	    -16.99894688	    -18.14760552	     15.93579436	      0.27813208	      4.47828224	      3.30464790	     -7.49999987	    -10.64183449	      0.36810811	      2.52428395	     32.68471457	     -9.67493324	     31.20515461	    129.15107508	    110.37363894	     40.78716561	    -12.28784275	     38.99235419	    124.07329646	    108.61496397
      9.91000000	    -14.27150309	     -2.71849329	     -0.79479525	     -0.23220580	      0.93580441	     -0.72367594	     26.50186980	     -9.03769652	     -3.95806507	     14.14611622	      0.24689630	      1.46402960	      0.15891052	     -7.49999987	     25.70022309	    -16.70108544	    -18.40269480	     15.33954485	      0.26772556	      4.44562580	      3.46433883	     -7.49999987	    -10.34967000	      0.21895784	      2.50739677	     31.88537170	     -9.72693287	     31.35409738	    128.97697238	    110.91417734	     39.92888787	    -12.48968692	     38.95160888	    124.13266586	    108.50971718
      9.92000000	    -14.12970762	     -2.54888360	     -0.89102967	     -0.23086376	      0.93678014	     -0.72491928	     25.95075321	     -9.20706740	     -3.83445305	     13.46319446	      0.23497707	      1.29836741	      0.38918725	     -7.49999987	     25.08789950	    -16.36753285	    -18.68432712	     14.76863128	      0.25776124	      4.36455630	      3.59116044	     -7.49999987	    -10.08466535	      0.01313388	      2.52488834	     31.06423936	     -9.76383345	     31.56130303	    128.72900087	    111.73457875	     39.19070560	    -12.68587716	     38.98961233	    124.14795207	    108.11944970
      9.93000000	    -13.91077826	     -2.34976036	     -0.88959858	     -0.22955573	      0.93780073	     -0.72636230	     25.29714894	     -9.47173700	     -3.87809479	     12.75621062	      0.22263788	      0.90188576	      0.47878234	     -7.49999987	     24.44092016	    -15.93791418	    -18.73523101	     14.20833371	      0.24798220	      4.07646481	      3.34477568	     -7.49999987	     -9.95425211	     -0.20221002	      2.43646355	     30.29941994	     -9.68683355	     31.64077482	    128.56966529	    111.91731414	     38.49985569	    -12.84863979	     38.78704839	    124.09137614	    109.24038701
      9.94000000	    -13.62087251	     -2.17343025	     -0.84888811	     -0.22813720	      0.93893822	     -0.72799612	     24.54431876	     -9.75952337	     -4.05587178	     12.07150934	      0.21068758	      0.79215741	      1.01513458	     -7.49999987	     23.68520742	    -15.48441440	    -18.82303015	     13.54979134	      0.23648847	      3.90909089	      3.30376189	     -7.49999987	     -9.89619306	     -0.34118066	      2.35802914	     29.59991705	     -9.72175436	     31.64685158	    128.48102261	    112.00205786	     37.81275860	    -12.98980300	     38.79641149	    124.16369445	    108.85430896
      9.95000000	    -13.36667781	     -1.99329464	     -0.87312643	     -0.22671438	      0.93997117	     -0.72938686	     23.86125425	    -10.01260360	     -4.15691906	     11.41771181	      0.19927666	      0.70962795	      1.49015522	     -7.49999987	     22.98261862	    -15.13483240	    -19.35646885	     12.99123176	      0.22673977	      3.97698673	      3.95478361	     -7.49999987	     -9.78991465	     -0.51474430	      2.38786278	     28.81582496	     -9.73552893	     31.59679696	    128.52993177	    111.43141235	     37.21947699	    -13.11389328	     38.83285882	    124.10148620	    109.01063229
      9.96000000	    -13.23013147	     -1.88654656	     -0.85224359	     -0.22543693	      0.94080396	     -0.73056983	     23.28071564	    -10.16327497	     -4.20698883	     10.71041827	      0.18693206	      0.33200578	      1.53193143	     -7.49999987	     22.46965379	    -14.81073509	    -19.30064813	     12.44407076	      0.21719001	      3.63266576	      3.63887461	     -7.49999987	     -9.54886912	     -0.59304283	      2.30395418	     28.09905777	     -9.68948566	     31.62202315	    128.33666916	    112.08780455	     36.55056988	    -13.30188780	     38.85674920	    124.07395223	    109.17531755
      9.97000000	    -13.08531594	     -1.74894220	     -0.92799611	     -0.22416446	      0.94156591	     -0.73148284	     22.76897064	    -10.30596936	     -4.08846059	     10.11216513	      0.17649058	      0.13170916	      1.66068298	     -7.49999987	     21.94929810	    -14.59536529	    -19.91031795	     12.02218771	      0.20982676	      3.74528338	      4.36690763	     -7.49999987	     -9.30540319	     -0.76096474	      2.42264505	     27.30289130	     -9.72638664	     31.56525443	    128.34638174	    111.73978901	     36.06652687	    -13.47184425	     39.13256377	    123.93300629	    108.81984436
      9.98000000	    -12.92942051	     -1.63401541	     -0.92667382	     -0.22289420	      0.94232950	     -0.73253511	     22.23314563	    -10.47448848	     -4.20543575	      9.53071643	      0.16634238	     -0.04998681	      1.94233837	     -7.49999987	     21.36788340	    -14.26757862	    -19.94799866	     11.40739990	      0.19909669	      3.59257218	      4.31524305	     -7.49999987	     -9.09071935	     -0.86002654	      2.33340741	     26.63193152	     -9.70322899	     31.61302658	    128.19524003	    111.92043421	     35.43544499	    -13.61590066	     39.13126653	    124.05591624	    108.00418945
      9.99000000	    -12.79125990	     -1.52164830	     -0.95957498	     -0.22166500	      0.94302596	     -0.73350870	     21.72406642	    -10.59791585	     -4.11902157	      8.94608170	      0.15613858	     -0.33285875	      1.91872672	     -7.49999987	     20.79177687	    -13.95658879	    -20.13736531	     10.78615898	      0.18825399	      3.55810477	      4.52363929	     -7.49999987	     -8.85854185	     -0.99238228	      2.37161329	     25.87663833	     -9.71789074	     31.51064554	    128.23156641	    111.81613437	     34.90154549	    -13.67885212	     38.97678507	    123.98771218	    108.74478148
     10.00000000	    -12.73129406	     -1.48079917	     -0.96775966	     -0.22045224	      0.94351965	     -0.73442611	     21.30743929	    -10.67467090	     -4.22235015	      8.42117335	      0.14697720	     -0.46138037	      2.20102919	     -7.49999987	     20.32810512	    -13.71584530	    -20.10152399	     10.15882860	      0.17730501	      3.33581229	      4.28885312	     -7.49999987	     -8.51521410	     -1.01802541	      2.27203264	     25.23419692	     -9.69182577	     31.48581072	    128.09834286	    111.78459290	     34.18596312	    -13.81509488	     38.76337730	    124.05595597	    109.17744224
